<?xml version="1.0" encoding="UTF-8"?> <svg xmlns="http://www.w3.org/2000/svg" width="100" height="100" viewBox="0 0 100 100" fill="none"> <circle cx="50" cy="49" r="45" fill="#0071BC"></circle> <path d="M50.239 39.2461C44.644 39.2461 40.093 43.7211 40.093 49.2221C40.093 54.7231 44.644 59.1981 50.239 59.1981C55.834 59.1981 60.385 54.7231 60.385 49.2221C60.385 43.7211 55.834 39.2461 50.239 39.2461Z" fill="white"></path> <path d="M63.161 24.4702H37.218C30.726 24.4702 25.444 29.7522 25.444 36.2442V62.4252C25.444 68.9172 30.726 74.1992 37.218 74.1992H63.161C69.653 74.1992 74.935 68.9172 74.935 62.4252V36.2442C74.935 29.7522 69.653 24.4702 63.161 24.4702ZM50.239 65.0112C41.439 65.0112 34.28 57.9282 34.28 49.2222C34.28 40.5162 41.44 33.4332 50.239 33.4332C59.038 33.4332 66.198 40.5162 66.198 49.2222C66.198 57.9282 59.039 65.0112 50.239 65.0112ZM66.482 36.5422C64.408 36.5422 62.727 34.8612 62.727 32.7872C62.727 30.7132 64.408 29.0322 66.482 29.0322C68.556 29.0322 70.237 30.7132 70.237 32.7872C70.237 34.8612 68.556 36.5422 66.482 36.5422Z" fill="white"></path> <path d="M50.312 0C23.078 0 1 22.078 1 49.312C1 76.546 23.078 98.624 50.312 98.624C77.546 98.624 99.624 76.546 99.624 49.312C99.624 22.078 77.546 0 50.312 0ZM80.759 62.425C80.759 72.129 72.864 80.023 63.161 80.023H37.218C27.514 80.023 19.62 72.128 19.62 62.425V36.244C19.62 26.54 27.515 18.646 37.218 18.646H63.161C72.865 18.646 80.759 26.541 80.759 36.244V62.425Z" fill="white"></path> </svg> 