<?xml version="1.0" encoding="UTF-8"?> <svg xmlns="http://www.w3.org/2000/svg" width="64" height="23" viewBox="0 0 64 23" fill="none"> <g clip-path="url(#clip0_523_9)"> <path d="M19.759 1L22.7534 6.57322H26.0001L22.7812 1H19.759Z" fill="#E2F4FF"></path> <path d="M22.732 1L17.8965 10H14.5117L19.7099 1H22.732Z" fill="white"></path> <path d="M16.567 1L11.7315 10H8.34668L13.5448 1H16.567Z" fill="white"></path> <path d="M10.2203 1L5.38481 10H2L7.19817 1H10.2203Z" fill="white"></path> </g> <path d="M33.244 5.226C33.636 5.32867 33.9627 5.492 34.224 5.716C34.4947 5.93067 34.6907 6.178 34.812 6.458C34.9427 6.738 35.008 7.032 35.008 7.34C35.008 8.18933 34.7093 8.84733 34.112 9.314C33.5147 9.77133 32.6607 10 31.55 10H27.994V0.928H31.312C32.0307 0.928 32.6373 1.03067 33.132 1.236C33.636 1.432 34.014 1.712 34.266 2.076C34.518 2.43067 34.644 2.85067 34.644 3.336C34.644 3.73733 34.5273 4.11067 34.294 4.456C34.0607 4.792 33.7107 5.04867 33.244 5.226ZM29.982 2.496V4.61H31.088C32.1147 4.61 32.628 4.24133 32.628 3.504C32.628 3.17733 32.5113 2.93 32.278 2.762C32.054 2.58467 31.7227 2.496 31.284 2.496H29.982ZM31.382 8.404C31.9513 8.404 32.3573 8.30133 32.6 8.096C32.8427 7.88133 32.964 7.59667 32.964 7.242C32.964 6.89667 32.838 6.62133 32.586 6.416C32.334 6.21067 31.9513 6.108 31.438 6.108H29.982V8.404H31.382ZM40.0249 10.196C39.0543 10.196 38.2283 9.99533 37.5469 9.594C36.8749 9.19267 36.3663 8.63733 36.0209 7.928C35.6756 7.20933 35.5029 6.37867 35.5029 5.436C35.5029 4.39067 35.7129 3.518 36.1329 2.818C36.5529 2.10867 37.1083 1.586 37.7989 1.25C38.4989 0.904666 39.2736 0.731999 40.1229 0.731999C41.0936 0.731999 41.9149 0.932666 42.5869 1.334C43.2683 1.73533 43.7769 2.29533 44.1129 3.014C44.4583 3.72333 44.6309 4.54933 44.6309 5.492C44.6309 6.53733 44.4209 7.41467 44.0009 8.124C43.5903 8.824 43.0349 9.34667 42.3349 9.692C41.6443 10.028 40.8743 10.196 40.0249 10.196ZM40.0249 8.572C40.5756 8.572 41.0423 8.45067 41.4249 8.208C41.8169 7.956 42.1063 7.60133 42.2929 7.144C42.4889 6.67733 42.5869 6.13133 42.5869 5.506C42.5869 4.51667 42.3769 3.74667 41.9569 3.196C41.5369 2.636 40.9256 2.356 40.1229 2.356C39.2829 2.356 38.6436 2.63133 38.2049 3.182C37.7663 3.72333 37.5469 4.47 37.5469 5.422C37.5469 6.41133 37.7569 7.186 38.1769 7.746C38.5969 8.29667 39.2129 8.572 40.0249 8.572ZM52.7731 9.888V10H50.5751L48.3211 6.696H47.5651V10H45.5771V0.928H48.6151C49.4178 0.928 50.0851 1.054 50.6171 1.306C51.1585 1.54867 51.5598 1.88467 51.8211 2.314C52.0825 2.734 52.2131 3.21467 52.2131 3.756C52.2131 4.39067 52.0545 4.94133 51.7371 5.408C51.4198 5.86533 50.9531 6.206 50.3371 6.43L52.7731 9.888ZM47.5651 5.198H48.4191C48.9791 5.198 49.4085 5.09067 49.7071 4.876C50.0151 4.66133 50.1691 4.30667 50.1691 3.812C50.1691 3.38267 50.0338 3.06067 49.7631 2.846C49.4925 2.63133 49.1145 2.524 48.6291 2.524H47.5651V5.198ZM58.3393 0.928L61.6013 9.888V10H59.4873L58.7593 7.83H55.3993L54.6853 10H52.5993V9.888L55.8613 0.928H58.3393ZM55.9313 6.234H58.2273L57.0653 2.776L55.9313 6.234Z" fill="white"></path> <path d="M4.172 11.928C4.97467 11.928 5.642 12.054 6.174 12.306C6.706 12.558 7.10267 12.9033 7.364 13.342C7.62533 13.7713 7.756 14.2707 7.756 14.84C7.756 15.4467 7.62067 15.988 7.35 16.464C7.07933 16.9307 6.66867 17.2993 6.118 17.57C5.57667 17.8313 4.914 17.962 4.13 17.962H2.982V21H0.994V11.928H4.172ZM3.934 16.366C4.50333 16.366 4.942 16.2587 5.25 16.044C5.558 15.82 5.712 15.4373 5.712 14.896C5.712 14.4387 5.572 14.098 5.292 13.874C5.02133 13.6407 4.63867 13.524 4.144 13.524H2.982V16.366H3.934ZM15.6964 20.888V21H13.4984L11.2444 17.696H10.4884V21H8.50041V11.928H11.5384C12.3411 11.928 13.0084 12.054 13.5404 12.306C14.0817 12.5487 14.4831 12.8847 14.7444 13.314C15.0057 13.734 15.1364 14.2147 15.1364 14.756C15.1364 15.3907 14.9777 15.9413 14.6604 16.408C14.3431 16.8653 13.8764 17.206 13.2604 17.43L15.6964 20.888ZM10.4884 16.198H11.3424C11.9024 16.198 12.3317 16.0907 12.6304 15.876C12.9384 15.6613 13.0924 15.3067 13.0924 14.812C13.0924 14.3827 12.9571 14.0607 12.6864 13.846C12.4157 13.6313 12.0377 13.524 11.5524 13.524H10.4884V16.198ZM20.1895 21.196C19.2189 21.196 18.3929 20.9953 17.7115 20.594C17.0395 20.1927 16.5309 19.6373 16.1855 18.928C15.8402 18.2093 15.6675 17.3787 15.6675 16.436C15.6675 15.3907 15.8775 14.518 16.2975 13.818C16.7175 13.1087 17.2729 12.586 17.9635 12.25C18.6635 11.9047 19.4382 11.732 20.2875 11.732C21.2582 11.732 22.0795 11.9327 22.7515 12.334C23.4329 12.7353 23.9415 13.2953 24.2775 14.014C24.6229 14.7233 24.7955 15.5493 24.7955 16.492C24.7955 17.5373 24.5855 18.4147 24.1655 19.124C23.7549 19.824 23.1995 20.3467 22.4995 20.692C21.8089 21.028 21.0389 21.196 20.1895 21.196ZM20.1895 19.572C20.7402 19.572 21.2069 19.4507 21.5895 19.208C21.9815 18.956 22.2709 18.6013 22.4575 18.144C22.6535 17.6773 22.7515 17.1313 22.7515 16.506C22.7515 15.5167 22.5415 14.7467 22.1215 14.196C21.7015 13.636 21.0902 13.356 20.2875 13.356C19.4475 13.356 18.8082 13.6313 18.3695 14.182C17.9309 14.7233 17.7115 15.47 17.7115 16.422C17.7115 17.4113 17.9215 18.186 18.3415 18.746C18.7615 19.2967 19.3775 19.572 20.1895 19.572ZM28.9197 11.928C29.7224 11.928 30.3897 12.054 30.9217 12.306C31.4537 12.558 31.8504 12.9033 32.1117 13.342C32.3731 13.7713 32.5037 14.2707 32.5037 14.84C32.5037 15.4467 32.3684 15.988 32.0977 16.464C31.8271 16.9307 31.4164 17.2993 30.8657 17.57C30.3244 17.8313 29.6617 17.962 28.8777 17.962H27.7297V21H25.7417V11.928H28.9197ZM28.6817 16.366C29.2511 16.366 29.6897 16.2587 29.9977 16.044C30.3057 15.82 30.4597 15.4373 30.4597 14.896C30.4597 14.4387 30.3197 14.098 30.0397 13.874C29.7691 13.6407 29.3864 13.524 28.8917 13.524H27.7297V16.366H28.6817ZM35.2361 19.376H39.3801V21H33.2481V11.928H39.3101V13.538H35.2361V15.582H38.7501L38.5261 17.178H35.2361V19.376ZM47.6224 20.888V21H45.4244L43.1704 17.696H42.4144V21H40.4264V11.928H43.4644C44.2671 11.928 44.9344 12.054 45.4664 12.306C46.0078 12.5487 46.4091 12.8847 46.6704 13.314C46.9318 13.734 47.0624 14.2147 47.0624 14.756C47.0624 15.3907 46.9038 15.9413 46.5864 16.408C46.2691 16.8653 45.8024 17.206 45.1864 17.43L47.6224 20.888ZM42.4144 16.198H43.2684C43.8284 16.198 44.2578 16.0907 44.5564 15.876C44.8644 15.6613 45.0184 15.3067 45.0184 14.812C45.0184 14.3827 44.8831 14.0607 44.6124 13.846C44.3418 13.6313 43.9638 13.524 43.4784 13.524H42.4144V16.198ZM54.8212 11.928V13.622H51.9932V21H50.0052V13.622H47.1072V11.928H54.8212ZM63.1812 11.928V12.04L59.8772 17.22V21H57.8892V17.276L54.6132 12.04V11.928H56.8532L58.8972 15.428L61.0252 11.928H63.1812Z" fill="white"></path> <defs> <clipPath id="clip0_523_9"> <rect width="24" height="9" fill="white" transform="translate(2 1)"></rect> </clipPath> </defs> </svg> 