<?xml version="1.0" encoding="UTF-8"?> <svg xmlns="http://www.w3.org/2000/svg" width="100" height="100" viewBox="0 0 100 100" fill="none"> <circle cx="50" cy="50" r="45" fill="#0071BC"></circle> <path d="M50.312 1C23.078 1 1 23.078 1 50.312C1 77.546 23.078 99.624 50.312 99.624C77.546 99.624 99.624 77.546 99.624 50.312C99.624 23.078 77.546 1 50.312 1ZM64.8 29.265C62.456 29.265 60.097 29.265 57.754 29.265C56.271 29.169 54.741 30.301 54.47 31.784C54.438 34.351 54.454 36.917 54.454 39.484C57.897 39.5 61.341 39.484 64.785 39.5C64.53 43.214 64.068 46.913 63.526 50.58C60.481 50.612 57.436 50.58 54.391 50.596C54.359 61.548 54.407 72.484 54.375 83.437C49.847 83.453 45.336 83.421 40.808 83.453C40.728 72.501 40.808 61.549 40.76 50.596C38.56 50.58 36.344 50.612 34.144 50.58C34.16 46.897 34.144 43.215 34.144 39.548C36.344 39.516 38.56 39.548 40.76 39.532C40.824 35.961 40.696 32.374 40.824 28.803C41.063 25.949 42.131 23.096 44.252 21.135C46.819 18.696 50.453 17.867 53.897 17.771C57.532 17.739 61.167 17.755 64.801 17.755C64.816 21.597 64.816 25.423 64.8 29.265Z" fill="white"></path> </svg> 