<?xml version="1.0" encoding="UTF-8"?> <svg xmlns="http://www.w3.org/2000/svg" width="70" height="30" viewBox="0 0 70 30" fill="none"> <g clip-path="url(#clip0_502_7)"> <path d="M17.759 5L20.7534 10.5732H24.0001L20.7812 5H17.759Z" fill="#0071BC"></path> <path d="M20.732 5L15.8965 14H12.5117L17.7099 5H20.732Z" fill="#3498DB"></path> <path d="M14.567 5L9.73149 14H6.34668L11.5448 5H14.567Z" fill="#3498DB"></path> <path d="M8.2203 5L3.38481 14H0L5.19817 5H8.2203Z" fill="#3498DB"></path> </g> <path d="M33.244 9.226C33.636 9.32867 33.9627 9.492 34.224 9.716C34.4947 9.93067 34.6907 10.178 34.812 10.458C34.9427 10.738 35.008 11.032 35.008 11.34C35.008 12.1893 34.7093 12.8473 34.112 13.314C33.5147 13.7713 32.6607 14 31.55 14H27.994V4.928H31.312C32.0307 4.928 32.6373 5.03067 33.132 5.236C33.636 5.432 34.014 5.712 34.266 6.076C34.518 6.43067 34.644 6.85067 34.644 7.336C34.644 7.73733 34.5273 8.11067 34.294 8.456C34.0607 8.792 33.7107 9.04867 33.244 9.226ZM29.982 6.496V8.61H31.088C32.1147 8.61 32.628 8.24133 32.628 7.504C32.628 7.17733 32.5113 6.93 32.278 6.762C32.054 6.58467 31.7227 6.496 31.284 6.496H29.982ZM31.382 12.404C31.9513 12.404 32.3573 12.3013 32.6 12.096C32.8427 11.8813 32.964 11.5967 32.964 11.242C32.964 10.8967 32.838 10.6213 32.586 10.416C32.334 10.2107 31.9513 10.108 31.438 10.108H29.982V12.404H31.382ZM40.0249 14.196C39.0543 14.196 38.2283 13.9953 37.5469 13.594C36.8749 13.1927 36.3663 12.6373 36.0209 11.928C35.6756 11.2093 35.5029 10.3787 35.5029 9.436C35.5029 8.39067 35.7129 7.518 36.1329 6.818C36.5529 6.10867 37.1083 5.586 37.7989 5.25C38.4989 4.90467 39.2736 4.732 40.1229 4.732C41.0936 4.732 41.9149 4.93267 42.5869 5.334C43.2683 5.73533 43.7769 6.29533 44.1129 7.014C44.4583 7.72333 44.6309 8.54933 44.6309 9.492C44.6309 10.5373 44.4209 11.4147 44.0009 12.124C43.5903 12.824 43.0349 13.3467 42.3349 13.692C41.6443 14.028 40.8743 14.196 40.0249 14.196ZM40.0249 12.572C40.5756 12.572 41.0423 12.4507 41.4249 12.208C41.8169 11.956 42.1063 11.6013 42.2929 11.144C42.4889 10.6773 42.5869 10.1313 42.5869 9.506C42.5869 8.51667 42.3769 7.74667 41.9569 7.196C41.5369 6.636 40.9256 6.356 40.1229 6.356C39.2829 6.356 38.6436 6.63133 38.2049 7.182C37.7663 7.72333 37.5469 8.47 37.5469 9.422C37.5469 10.4113 37.7569 11.186 38.1769 11.746C38.5969 12.2967 39.2129 12.572 40.0249 12.572ZM52.7731 13.888V14H50.5751L48.3211 10.696H47.5651V14H45.5771V4.928H48.6151C49.4178 4.928 50.0851 5.054 50.6171 5.306C51.1585 5.54867 51.5598 5.88467 51.8211 6.314C52.0825 6.734 52.2131 7.21467 52.2131 7.756C52.2131 8.39067 52.0545 8.94133 51.7371 9.408C51.4198 9.86533 50.9531 10.206 50.3371 10.43L52.7731 13.888ZM47.5651 9.198H48.4191C48.9791 9.198 49.4085 9.09067 49.7071 8.876C50.0151 8.66133 50.1691 8.30667 50.1691 7.812C50.1691 7.38267 50.0338 7.06067 49.7631 6.846C49.4925 6.63133 49.1145 6.524 48.6291 6.524H47.5651V9.198ZM58.3393 4.928L61.6013 13.888V14H59.4873L58.7593 11.83H55.3993L54.6853 14H52.5993V13.888L55.8613 4.928H58.3393ZM55.9313 10.234H58.2273L57.0653 6.776L55.9313 10.234Z" fill="#3498DB"></path> <path d="M4.172 15.928C4.97467 15.928 5.642 16.054 6.174 16.306C6.706 16.558 7.10267 16.9033 7.364 17.342C7.62533 17.7713 7.756 18.2707 7.756 18.84C7.756 19.4467 7.62067 19.988 7.35 20.464C7.07933 20.9307 6.66867 21.2993 6.118 21.57C5.57667 21.8313 4.914 21.962 4.13 21.962H2.982V25H0.994V15.928H4.172ZM3.934 20.366C4.50333 20.366 4.942 20.2587 5.25 20.044C5.558 19.82 5.712 19.4373 5.712 18.896C5.712 18.4387 5.572 18.098 5.292 17.874C5.02133 17.6407 4.63867 17.524 4.144 17.524H2.982V20.366H3.934ZM15.6964 24.888V25H13.4984L11.2444 21.696H10.4884V25H8.50041V15.928H11.5384C12.3411 15.928 13.0084 16.054 13.5404 16.306C14.0817 16.5487 14.4831 16.8847 14.7444 17.314C15.0057 17.734 15.1364 18.2147 15.1364 18.756C15.1364 19.3907 14.9777 19.9413 14.6604 20.408C14.3431 20.8653 13.8764 21.206 13.2604 21.43L15.6964 24.888ZM10.4884 20.198H11.3424C11.9024 20.198 12.3317 20.0907 12.6304 19.876C12.9384 19.6613 13.0924 19.3067 13.0924 18.812C13.0924 18.3827 12.9571 18.0607 12.6864 17.846C12.4157 17.6313 12.0377 17.524 11.5524 17.524H10.4884V20.198ZM20.1895 25.196C19.2189 25.196 18.3929 24.9953 17.7115 24.594C17.0395 24.1927 16.5309 23.6373 16.1855 22.928C15.8402 22.2093 15.6675 21.3787 15.6675 20.436C15.6675 19.3907 15.8775 18.518 16.2975 17.818C16.7175 17.1087 17.2729 16.586 17.9635 16.25C18.6635 15.9047 19.4382 15.732 20.2875 15.732C21.2582 15.732 22.0795 15.9327 22.7515 16.334C23.4329 16.7353 23.9415 17.2953 24.2775 18.014C24.6229 18.7233 24.7955 19.5493 24.7955 20.492C24.7955 21.5373 24.5855 22.4147 24.1655 23.124C23.7549 23.824 23.1995 24.3467 22.4995 24.692C21.8089 25.028 21.0389 25.196 20.1895 25.196ZM20.1895 23.572C20.7402 23.572 21.2069 23.4507 21.5895 23.208C21.9815 22.956 22.2709 22.6013 22.4575 22.144C22.6535 21.6773 22.7515 21.1313 22.7515 20.506C22.7515 19.5167 22.5415 18.7467 22.1215 18.196C21.7015 17.636 21.0902 17.356 20.2875 17.356C19.4475 17.356 18.8082 17.6313 18.3695 18.182C17.9309 18.7233 17.7115 19.47 17.7115 20.422C17.7115 21.4113 17.9215 22.186 18.3415 22.746C18.7615 23.2967 19.3775 23.572 20.1895 23.572ZM28.9197 15.928C29.7224 15.928 30.3897 16.054 30.9217 16.306C31.4537 16.558 31.8504 16.9033 32.1117 17.342C32.3731 17.7713 32.5037 18.2707 32.5037 18.84C32.5037 19.4467 32.3684 19.988 32.0977 20.464C31.8271 20.9307 31.4164 21.2993 30.8657 21.57C30.3244 21.8313 29.6617 21.962 28.8777 21.962H27.7297V25H25.7417V15.928H28.9197ZM28.6817 20.366C29.2511 20.366 29.6897 20.2587 29.9977 20.044C30.3057 19.82 30.4597 19.4373 30.4597 18.896C30.4597 18.4387 30.3197 18.098 30.0397 17.874C29.7691 17.6407 29.3864 17.524 28.8917 17.524H27.7297V20.366H28.6817ZM35.2361 23.376H39.3801V25H33.2481V15.928H39.3101V17.538H35.2361V19.582H38.7501L38.5261 21.178H35.2361V23.376ZM47.6224 24.888V25H45.4244L43.1704 21.696H42.4144V25H40.4264V15.928H43.4644C44.2671 15.928 44.9344 16.054 45.4664 16.306C46.0078 16.5487 46.4091 16.8847 46.6704 17.314C46.9318 17.734 47.0624 18.2147 47.0624 18.756C47.0624 19.3907 46.9038 19.9413 46.5864 20.408C46.2691 20.8653 45.8024 21.206 45.1864 21.43L47.6224 24.888ZM42.4144 20.198H43.2684C43.8284 20.198 44.2578 20.0907 44.5564 19.876C44.8644 19.6613 45.0184 19.3067 45.0184 18.812C45.0184 18.3827 44.8831 18.0607 44.6124 17.846C44.3418 17.6313 43.9638 17.524 43.4784 17.524H42.4144V20.198ZM54.8212 15.928V17.622H51.9932V25H50.0052V17.622H47.1072V15.928H54.8212ZM63.1812 15.928V16.04L59.8772 21.22V25H57.8892V21.276L54.6132 16.04V15.928H56.8532L58.8972 19.428L61.0252 15.928H63.1812Z" fill="#3498DB"></path> <defs> <clipPath id="clip0_502_7"> <rect width="24" height="9" fill="white" transform="translate(0 5)"></rect> </clipPath> </defs> </svg> 